<svg id="Ebene_1" data-name="Ebene 1" xmlns="http://www.w3.org/2000/svg" viewBox="0 0 920 500"><defs><style>.cls-2{fill:#d22930}.cls-3{fill:#0b0b0b}</style></defs><path d="M803.806 90.522c-12.547 10-23.655 21.917-8.9 36.739 15.243 15.311 25.986 4.209 34.412-10.112.7-1.187 3.377-1.209 5.136-1.772 31.516 1.828 58.288-11.733 85.255-25.32-22-.957-43.333-1.029-63.363-11.549-22.6-11.869-25.636-33.109-26.173-61.333-16.282 26.763-27.644 47.798-26.367 73.347zM223.442 438.37c4.415-1.7 6.729-1.859 7.761-3.092C334.948 311.332 275.831 138 118.488 105.788c-10.411-2.131-13.676-3.244-15.553-15.364-6.029-38.942-30.323-66.108-64.213-84.683-9.932-5.444-21.5-9.5-31.666-.2C-2.96 14.7.216 26.392 3.5 37.285c13.452 44.589 47.432 68.644 96.936 69.293 2.581.034 5.423 1.437 7.666 2.924 45.928 30.439 89.906 62.143 110.287 117.288 25.734 69.624 29.381 139.442 5.053 211.58zm5.118-358.7c.113 31.842 25.827 57.657 57.282 57.507 30.8-.147 57.536-27.27 57.312-58.135-.223-30.642-27.514-57.842-57.928-57.729-31.041.115-56.779 26.62-56.667 58.356zm146.449 100.59c-47.541 19.394-88.092 104.419-75.923 159.19 12.572 56.586 97.889 109.943 166.621 104.2-142.349-63-155.363-142.939-90.699-263.391zm164.422 67.34c99.134 58.928 110.789 145.557 90.5 244.876 36.79-36.724 50.708-118.475 29.88-167.136-18.343-42.859-72.133-79.209-120.38-77.74zm202 53.9c-46.363 31.222-68.537 89.771-53.462 130.195 14.682 39.37 73.681 73.619 119.959 67.629-39.088-17.778-74.653-37.323-88.789-78.767-13.916-40.801 3.968-77.891 22.29-119.064zm-23.012-79.8c-.57-24.339-22.32-44.623-46.489-43.356-23.414 1.228-41.481 21.083-41.13 45.2.349 23.923 19.477 43.395 42.84 43.608 23.733.218 45.335-21.709 44.779-45.452zm-187.347 7.648c-.716-23.082-35.938-63.212-58.505-66.838-13.4-2.154-19.629 4.708-20.177 16.939-1.046 23.35 37.352 66.182 60.258 68.037 13.261 1.073 19.277-4.986 18.424-18.138z" fill="#fcfcfc"/><path class="cls-2" d="M223.442 438.37c24.329-72.138 20.681-141.957-5.051-211.581C198.01 171.644 154.032 139.94 108.1 109.5c-2.243-1.486-5.084-2.89-7.666-2.924-49.5-.649-83.484-24.7-96.936-69.293C.216 26.392-2.96 14.7 7.056 5.541c10.17-9.3 21.734-5.244 31.666.2 33.89 18.575 58.184 45.742 64.214 84.683 1.877 12.12 5.142 13.233 15.553 15.364C275.831 138 334.948 311.332 231.2 435.278c-1.029 1.233-3.343 1.392-7.758 3.092zM228.559 79.669c-.112-31.736 25.625-58.242 56.666-58.357 30.415-.112 57.706 27.088 57.929 57.729.224 30.865-26.515 57.988-57.312 58.135-31.456.15-57.17-25.664-57.283-57.507zM375.008 180.259c-64.664 120.451-51.65 200.391 90.7 263.394-68.732 5.739-154.049-47.618-166.621-104.2-12.171-54.775 28.381-139.799 75.921-159.194z"/><path class="cls-3" d="M539.431 247.6c48.247-1.466 102.037 34.883 120.381 77.74 20.828 48.661 6.91 130.412-29.88 167.136 20.288-99.321 8.633-185.95-90.501-244.876zM741.429 301.493c-18.322 41.174-36.206 78.264-22.292 119.057 14.136 41.444 49.7 60.989 88.789 78.767-46.278 5.99-105.277-28.259-119.959-67.629-15.075-40.425 7.099-98.973 53.462-130.195zM718.419 221.7c.556 23.743-21.046 45.67-44.779 45.453-23.363-.213-42.491-19.685-42.84-43.608-.351-24.118 17.715-43.973 41.13-45.2 24.17-1.268 45.919 19.016 46.489 43.355z"/><path class="cls-2" d="M803.806 90.522c-1.276-25.549 10.086-46.584 26.369-73.347.537 28.224 3.574 49.463 26.173 61.333 20.03 10.521 41.362 10.592 63.362 11.55-26.967 13.587-53.739 27.148-85.265 25.321-4.212-15.686-12.85-25.91-30.639-24.857z"/><path class="cls-3" d="M531.1 229.374c.827 13.125-5.189 19.185-18.451 18.111-22.905-1.855-61.3-44.687-60.258-68.037.548-12.231 6.772-19.093 20.177-16.939 22.566 3.627 57.787 43.757 58.532 66.865zM803.806 90.522c17.789-1.053 26.427 9.17 30.64 24.856-1.749.562-4.428.583-5.126 1.77-8.427 14.321-19.169 25.423-34.412 10.112-14.758-14.821-3.649-26.736 8.898-36.738z"/></svg>