<svg width="100" height="70" xmlns="http://www.w3.org/2000/svg" xmlns:xlink="http://www.w3.org/1999/xlink"><defs><path id="a" d="M0 42.784V.032h33.646v42.752z"/><path id="c" d="M16.684 14.712H.038V.168h16.646z"/><path id="e" d="M37.345.17v10.127H.05V.17h37.294z"/></defs><g fill="none" fill-rule="evenodd"><path d="M48.136 6.021l-.404-.082c-.315.452-.673.88-.937 1.36-.684 1.241-1.316 2.511-1.99 3.759-.32.591-.628 1.205-1.052 1.718-.26.315-.776.68-1.09.613-.33-.07-.639-.594-.804-.984-.176-.41-.211-.896-.238-1.353-.153-2.587-.28-5.177-.428-7.764-.075-1.337-.776-2.31-1.83-2.378-1.242-.08-1.646.944-1.858 1.85-.425 1.823-.812 3.675-.971 5.537-.52 6.083-.998 12.172-1.366 18.266-.416 6.882-.632 13.773.073 20.653.254 2.483.784 4.908 2.204 7.032 1.532 2.291 3.785 3.18 6.469 2.5 3.3-.835 5.817-2.886 7.976-5.405 4.844-5.652 8.873-11.886 12.75-18.212 2.907-4.743 5.614-9.61 8.388-14.436.312-.543.47-1.175.7-1.765l-.293-.243-3.398 1.898c-1.268.708-2.501 1.49-3.814 2.102-1.585.74-2.389.236-2.459-1.486-.039-.951.057-1.914.16-2.864.166-1.517.389-3.028.588-4.542l-.318-.113c-.465.561-.938 1.115-1.394 1.683-1.044 1.3-2.03 2.652-3.147 3.884-.344.378-1.065.635-1.563.57-.297-.04-.674-.803-.708-1.263-.135-1.837-.14-3.684-.212-5.526-.025-.642-.103-1.282-.157-1.922-.828 1.134-1.396 2.304-1.953 3.48-1.241 2.624-2.439 5.27-3.75 7.86-.243.48-.931.737-1.415 1.097-.328-.506-.666-1.006-.977-1.522-.067-.11-.045-.278-.053-.42-.143-2.515-.29-5.03-.426-7.546-.108-2.012-.203-4.024-.303-6.036M34.648 49.682l-.53-5.313c-.055-.66-.152-1.321-.157-1.982-.03-3.83-.038-7.658-.053-11.488.66-8.373 1.285-16.75 2.017-25.117.124-1.418.617-2.83 1.11-4.183.37-1.014 1.178-1.75 2.383-1.572 1.146.17 2.144.75 2.433 1.93.361 1.471.6 2.982.75 4.49.166 1.657.167 3.331.251 4.998.01.188.094.373.219.842l1.291-2.308c.779-1.39 1.48-2.832 2.36-4.153.873-1.311 1.756-1.212 2.192.279.413 1.408.627 2.9.722 4.37.198 3.08.26 6.168.384 9.254.008.205.072.41.163.9.483-.832.898-1.433 1.2-2.086 1.247-2.7 2.442-5.424 3.694-8.121.341-.735.754-1.455 1.247-2.094.564-.73 1.292-.61 1.465.288.331 1.727.512 3.485.701 5.236.103.95.096 1.911.152 3.182.624-.68 1.11-1.156 1.536-1.682 1.138-1.406 2.193-2.883 3.392-4.232.762-.858 1.358-.655 1.772.418-.07.845-.134 1.69-.214 2.535-.156 1.653-.358 3.304-.45 4.961-.018.326.375.675.578 1.014 1.225-.613 2.461-1.206 3.673-1.844 1.344-.709 2.628-1.545 4.01-2.166 1.099-.494 1.484-.176 1.713 1.057-.355.848-.625 1.745-1.079 2.537-2.52 4.404-4.998 8.835-7.655 13.155-4.09 6.65-8.292 13.232-13.38 19.192-.513.6-.906 1.303-1.354 1.959l-1.657 1.077-1.321.834-1.048.665.007-.005-1.287.643.006-.005-4.46.68-1.512-.346-2.135-1.18.006.006-.276-.251a.5.5 0 01-.108-.14l-.282-.461.014.018-.209-.259-1.924-4.147-.35-1.385" fill="#EB5A3F"/><g transform="translate(0 12.595)"><mask id="b" fill="#fff"><use xlink:href="#a"/></mask><path d="M9.337 6.316l-.297.142c.022.276.033.553.069.827.195 1.512.448 3.019.566 4.536.039.503-.267 1.032-.415 1.549-.514-.236-1.117-.372-1.521-.73-.603-.537-1.069-1.23-1.59-1.858-.972-1.176-1.87-2.427-2.954-3.49-.37-.363-1.237-.411-1.805-.284-.232.051-.49 1.013-.362 1.451.325 1.11.729 2.242 1.336 3.22C6.33 18.06 10.259 24.471 14.415 30.73c2.014 3.031 4.42 5.817 6.799 8.585 1.297 1.51 3.11 2.438 5.155 2.43 2.713-.012 4.06-1.888 4.985-4.13 1.06-2.572 1.245-5.308 1.296-8.042.163-8.89-.481-17.737-1.501-26.562-.074-.634-.253-1.257-.382-1.884-.528.551-.818 1.108-1.072 1.682-.573 1.294-1.072 2.624-1.704 3.888-.777 1.558-1.634 1.613-2.66.182-.595-.832-1.065-1.755-1.586-2.64-.388-.66-.765-1.324-1.147-1.987l-.268.062c-.037.472-.08.943-.107 1.415-.075 1.345-.088 2.697-.245 4.032-.05.417-.404.972-.763 1.124-.28.12-.9-.18-1.166-.476-.828-.922-1.558-1.93-2.327-2.904-.37-.47-.742-.938-1.113-1.407-.137.505-.11.893-.04 1.273.49 2.682 1.029 5.356 1.45 8.049.081.512-.288 1.094-.45 1.644-.519-.215-1.189-.293-1.529-.67-1.282-1.42-2.455-2.939-3.674-4.418-1.007-1.222-2.02-2.44-3.03-3.66m9.017 31.398c-2.176-2.981-4.487-5.874-6.497-8.963-3.423-5.258-6.69-10.62-9.946-15.985C1.167 11.54.65 10.158.178 8.796-.244 7.579.116 6.613.916 6.155c.892-.511 2.248-.329 3.004.538 1.282 1.471 2.487 3.009 3.731 4.513.31.373.644.726 1.224 1.006-.204-1.48-.426-2.957-.603-4.44-.098-.818-.536-1.882.372-2.337.919-.46 1.54.504 2.063 1.128 1.548 1.85 3.022 3.763 4.543 5.637.527.65 1.106 1.255 1.661 1.88l.33-.125c-.223-1.367-.424-2.739-.673-4.102-.332-1.81-.75-3.608-1.019-5.427-.07-.47.283-1 .442-1.503.447.216 1.017.324 1.318.668.838.958 1.555 2.024 2.342 3.03.379.483.81.926 1.216 1.388l.305-.11c.063-1.541.058-3.088.216-4.619.078-.748.282-1.929.736-2.1.983-.37 1.331.79 1.762 1.469.625.985 1.13 2.045 1.721 3.052.264.45.612.85 1.072 1.479.387-.718.712-1.24.96-1.797.593-1.324 1.087-2.696 1.751-3.983.28-.543.887-.917 1.344-1.368.367.524.741 1.043 1.093 1.576.094.143.117.332.174.5.013.355.012.71.041 1.062.483 5.814 1.164 11.62 1.396 17.444.214 5.357.568 10.765-.766 16.067l-.224.845.003-.007-1.921 3.617c-.289.126-.613.203-.86.385-1.453 1.077-2.979 1.68-4.788.926-.454-.189-.942-.298-1.414-.444L20.716 40.3l.005.004-.219-.218.006.005-.217-.22.005.005-.217-.219.004.005-.216-.22.006.005-.214-.222.004.004-.876-1.06.01.012-.214-.23.008.008-.238-.245" fill="#EC573B" mask="url(#b)"/></g><path d="M90.345 31.866c-1.712.567-3.413 1.174-5.146 1.671-.438.126-.978-.102-1.47-.167.129-.48.126-1.069.412-1.421 1.187-1.46 2.468-2.843 3.7-4.267.393-.455.874-.901 1.072-1.44.185-.507.174-1.178-.012-1.678-.064-.171-1.014-.221-1.402-.021-1.063.55-2.138 1.15-3.041 1.926C77.007 32.856 69.8 39.506 63.22 46.802c-1.757 1.948-3.48 3.944-4.373 6.49-1.168 3.33.028 5.544 3.417 6.437 2.484.655 4.937.35 7.386-.108 7.813-1.46 15.436-3.646 22.978-6.123 1.867-.613 3.685-1.377 5.805-2.177-.519-.205-.702-.307-.898-.349-1.627-.348-3.275-.618-4.88-1.045-1.6-.427-1.84-1.33-.677-2.521.864-.886 1.866-1.636 2.808-2.445.409-.35.821-.698 1.232-1.047-.573-.18-1.021-.144-1.464-.073-1.153.185-2.299.45-3.46.55-.463.04-1.183-.142-1.371-.465-.182-.314.055-1.01.31-1.408.419-.65.993-1.2 1.518-1.779.673-.742 1.361-1.471 2.043-2.206-.89.174-1.655.522-2.432.84-2.227.909-4.448 1.837-6.701 2.678-.38.142-.907-.111-1.366-.182.086-.457.043-1.004.283-1.356.618-.906 1.345-1.74 2.06-2.576 1.681-1.967 3.381-3.919 5.073-5.877l.09-.214-.257.02m-4.108.423c1.295-.443 2.573-.94 3.888-1.311 1.186-.334 1.557-.038 1.565 1.024l-7.677 9.051.177.222 1.341-.494.45-.25-.005.008c1.658-.686 3.316-1.375 4.976-2.057.915-.376 1.816-.801 2.758-1.09.743-.23 1.302-.03 1.033.95l-4.22 5.138h1.28c1.524-.274 3.042-.588 4.573-.805.735-.105 1.275.182 1.045 1.097l-5.474 4.992 1.112.323c1.614.347 3.234.67 4.84 1.052.724.172 1.494.394 1.335 1.431a.147.147 0 00-.106.086l-.403.398-2.103 1.043.007-.004-1.714.645.01-.007-.65.223.012-.007-.65.222.012-.006-.65.22.011-.005-.652.219.013-.006-.652.219.012-.006-.654.217.013-.007-.655.217.013-.007-.668.209c-1.91.543-3.809 1.119-5.728 1.621-3.619.948-7.229 1.944-10.88 2.748-3.331.735-6.675 1.618-10.155.982-.689-.126-1.396-.15-2.095-.222l-1.228-.552c-1.73-1.68-2.716-3.658-1.936-6.073.473-1.461 1.267-2.818 1.916-4.222l.6-.844c6.918-8.24 14.841-15.462 22.935-22.5 1.24-1.079 2.683-1.982 4.155-2.719 1.43-.716 2.305-.178 2.703 1.305.132 1.509-.83 2.484-1.714 3.49-1.21 1.378-2.434 2.743-3.652 4.113l.168.203 1.368-.474" fill="#ED563A"/><path d="M51.184 53.938c.448-.655.84-1.358 1.353-1.959 5.089-5.96 9.292-12.542 13.382-19.192 2.656-4.32 5.134-8.751 7.654-13.155.454-.792.724-1.688 1.079-2.537.722.56.4 1.25.128 1.834a56.473 56.473 0 01-2.08 4.07c-5.445 9.566-11.214 18.924-17.904 27.683-.988 1.293-2.03 2.543-3.047 3.812a76.434 76.434 0 00-.53-.126l-.035-.43" fill="#986F6F"/><path d="M51.219 54.368l.53.126.094.273c.005.708.012 1.417.014 2.125.008 2.894-.892 5.487-2.622 7.793-2.154 2.871-5.813 4.196-9.12 3.307-1.756-.472-3.148-1.552-4.47-2.74l.01.01-.221-.227.011.013-.272-.264c-1.61-2.526-2.604-5.222-2.529-8.282.062-2.47.676-4.74 2.004-6.82l.35 1.385c-2.755 4.33-1.507 11.45 2.566 14.585 1.635 1.258 3.473 1.993 5.549 1.634 5.138-.889 8.928-6.864 7.695-12.03l.057-.433.354-.455" fill="#F7E64C"/><g transform="translate(35.608 54.599)"><mask id="d" fill="#fff"><use xlink:href="#c"/></mask><path d="M.038 10.653c1.321 1.188 2.713 2.268 4.47 2.74 3.307.889 6.966-.436 9.119-3.306 1.73-2.307 2.63-4.9 2.623-7.794-.002-.708-.01-1.417-.015-2.125 1.613 5.126-1.151 13.137-7.752 14.432-2.797.549-6.654-.97-8.273-3.355-.11-.162-.117-.393-.172-.592" fill="#B1B0AE" mask="url(#d)"/></g><path d="M31.155 53.947l.852 2.118c.006.674.039 1.348.012 2.02-.122 3.102-2.653 5.644-5.484 5.441-.752-.054-1.483-.383-2.224-.586-2.488-2.342-3.214-5.096-1.952-8.317l.756.493c-.407 1.263-.589 2.524-.263 3.855.485 1.986 2.084 3.562 3.885 3.709 1.493.121 3.195-1.07 3.907-2.788.712-1.721.688-3.44-.153-5.124.042-.418-.06-.954.664-.821" fill="#F7E64D"/><path d="M60.922 60.562c.699.071 1.406.096 2.095.222 3.48.636 6.824-.247 10.155-.982 3.651-.804 7.261-1.8 10.88-2.748 1.919-.502 3.819-1.078 5.728-1.62l.668-.21-.013.007.655-.217-.013.007.654-.217-.012.006.652-.22-.013.007.652-.22-.012.006.651-.22-.012.006.65-.222-.011.007.649-.223-.01.007 1.714-.645-.007.004 2.103-1.043.403-.398c.353.586.182 1.003-.424 1.258-.783.33-1.558.685-2.36.958-7.704 2.622-15.5 4.93-23.47 6.595-3.1.648-6.226 1.367-9.446.761-.282-.053-.601.091-.903.144l-.644.009-.932-.628a.222.222 0 00-.027-.19" fill="#885A5B"/><g transform="translate(62.473 51.4)"><mask id="f" fill="#fff"><use xlink:href="#e"/></mask><path d="M.051 9.971c.302-.053.621-.197.903-.144 3.221.607 6.347-.113 9.447-.76 7.97-1.666 15.766-3.974 23.47-6.596.802-.273 1.577-.628 2.36-.958.605-.255.777-.672.424-1.257A.147.147 0 0136.76.17c.802.392.716.907.125 1.383a4.493 4.493 0 01-1.29.718c-9.38 3.347-18.906 6.193-28.74 7.85-2.026.341-4.153.083-6.234.08-.19 0-.38-.15-.57-.23" fill="#A68485" mask="url(#f)"/></g><path d="M32.672 49.276c1.334-5.302.98-10.71.767-16.067-.233-5.824-.914-11.63-1.397-17.444-.029-.352-.028-.707-.041-1.062.36 2.267.816 4.524 1.057 6.805.317 2.998.463 6.014.69 9.022.01.126.105.246.16.37.015 3.828.023 7.658.053 11.487.005.66.102 1.321.156 1.981-.202 1.269-.36 2.547-.618 3.803-.41 1.996-.88 3.98-2.266 5.585l-.29-.017c.128-.244.279-.48.381-.735.384-.96.753-1.926 1.127-2.89l-.003.007.224-.845" fill="#AE8A89"/><path d="M60.922 60.562c.038.06.047.124.027.191-.33.08-.678.268-.988.22-.945-.149-1.877-.388-2.813-.592-2.39-2.223-3.167-4.883-2.086-7.995.814-2.343 3.104-3.908 5.21-3.515l-.598.844c-1.196.083-2.142.632-2.908 1.538-1.85 2.19-1.679 5.93.498 7.78.63.536 1.61.663 2.43.977l1.228.552" fill="#F7E54D"/><path d="M85.531 40.781l-1.341.494-.177-.222 7.677-9.05c.752.494.4 1.076.035 1.54-.918 1.165-1.887 2.29-2.86 3.41-.813.933-1.674 1.824-2.484 2.76-.194.223-.273.548-.406.826l.006-.009-.45.251" fill="#9A7171"/><path d="M24.31 62.94c.742.203 1.473.532 2.225.586 2.832.203 5.362-2.34 5.484-5.44.027-.673-.006-1.347-.012-2.021 1.217 3.067-.099 6.68-2.902 7.968-1.67.767-3.53.342-4.794-1.093" fill="#B2B1AE"/><path d="M86.237 32.289l-1.368.474-.168-.203c1.218-1.37 2.442-2.735 3.652-4.112.884-1.007 1.846-1.982 1.714-3.49.82 1.294.804 2.04-.138 3.133-1.216 1.412-2.46 2.8-3.692 4.198" fill="#9A7070"/><path d="M93.06 49.087l-1.113-.323 5.474-4.992c.689.493.527 1.023.005 1.485-.975.864-1.993 1.68-2.98 2.531-.478.414-.925.865-1.387 1.299M91.804 43.48h-1.281l4.22-5.138c.653.4.596.924.183 1.427-.736.898-1.521 1.758-2.277 2.642-.295.345-.564.712-.845 1.069" fill="#966F6F"/><path d="M30.943 53.74l.29.016a.566.566 0 01-.078.19c-.724-.132-.622.404-.664.823l-2.98 1.278-1.418-.01c-.87-.292-1.74-.586-2.61-.88l-.015-.559c.472.146.96.255 1.414.444 1.81.754 3.335.151 4.788-.926.247-.183.571-.26.86-.385l.413.008" fill="#966E6E"/><path d="M65.256 20.048c-.203-.339-.596-.688-.578-1.014.092-1.657.294-3.308.45-4.961.08-.844.143-1.69.214-2.535.196.453.579.917.552 1.357-.097 1.615-.343 3.221-.504 4.834-.077.77-.091 1.545-.134 2.319" fill="#9E7474"/><path d="M57.148 60.381c.937.204 1.868.443 2.813.591.31.049.658-.139.988-.219l.932.628c-1.452.896-3.43.478-4.733-1" fill="#B1B0AE"/><path d="M23.468 54.598l.016.56-.37-.042-.755-.493-1.643-1.728 2.752 1.703zM18.787 50.764" fill="#A87B61"/><path d="M50.808 55.256c-1.997 1.53-4.034 2.991-6.57 3.5-2.302.46-5.175-.166-6.461-2.455l2.135 1.18c.4.247.771.59 1.207.724 1.944.6 3.76.062 5.503-.785.438-.212.792-.599 1.184-.905l-.004.004 1.284-.857-.004.003 1.783-.842-.057.433z" fill="#A88686"/><path d="M47.806 56.515c-.392.306-.746.693-1.184.905-1.743.847-3.559 1.384-5.503.785-.436-.134-.807-.477-1.207-.724l1.511.346c1.572.332 3.1.372 4.46-.68l-.005.005 1.287-.643-.007.005h.648M50.865 54.823l-1.783.842.445-.65 1.657-1.077.035.43-.354.455z" fill="#835556"/><path d="M45.884 57.148c-1.361 1.05-2.889 1.011-4.46.68l4.46-.68M49.527 55.015l-.445.65.004-.003-.83.246-.05-.059 1.321-.834" fill="#AE7D7B"/><path d="M47.165 56.51c-.43.213-.858.428-1.287.642l1.287-.643M47.806 56.515h-.648l1.048-.666.05.059-.454.61.004-.003z" fill="#AE7D7B"/><path d="M30.943 53.74l-.413-.01 1.921-3.616c-.374.964-.743 1.93-1.127 2.89-.102.256-.252.491-.38.735" fill="#8C5856"/><path d="M98.725 52.054l-2.103 1.043 2.103-1.043M96.629 53.093" fill="#AC7B7A"/><path d="M47.802 56.518l.453-.61.83-.246-1.283.856" fill="#835556"/></g></svg>